{
DisplayStrings = (
"\U00F7"
);
date = "2013-05-07 17:01:52 +0000";
designer = "Shinji Pons";
designerURL = www.shinjipons.com;
familyName = "Modulo 32";
fontMaster = (
{
alignmentZones = (
"{128, 129}",
"{128, 129}",
"{128, 129}",
"{0, -2}",
"{0, -2}"
);
ascender = 128;
capHeight = 128;
customParameters = (
{
name = familyName;
value = "Modulo 32";
}
);
descender = 0;
guideLines = (
{
position = "{-25, 48}";
},
{
angle = 90;
position = "{88, 139}";
},
{
angle = 90;
position = "{56, 135}";
},
{
position = "{-18, 80}";
},
{
angle = 90;
position = "{40, 143}";
},
{
angle = 90;
position = "{104, 136}";
},
{
position = "{-22, 96}";
},
{
position = "{-20, 32}";
},
{
angle = 90;
position = "{136, -22}";
},
{
angle = 90;
position = "{8, -30}";
}
);
horizontalStems = (
32
);
id = "940E2F63-624A-4C3D-A909-721782B4CF41";
verticalStems = (
32
);
weightValue = 22;
widthValue = 128;
xHeight = 128;
}
);
glyphs = (
{
glyphname = A;
lastChange = "2013-06-03 21:23:51 +0200";
layers = (
{
layerId = "940E2F63-624A-4C3D-A909-721782B4CF41";
name = Regular;
paths = (
{
closed = 1;
nodes = (
"24 128 LINE SMOOTH",
"15.163 128 OFFCURVE",
"8 120.837 OFFCURVE",
"8 112 CURVE SMOOTH",
"8 103.163 OFFCURVE",
"15.163 96 OFFCURVE",
"24 96 CURVE SMOOTH",
"104 96 LINE",
"104 32 LINE",
"40 32 LINE",
"40 48 LINE",
"72 48 LINE SMOOTH",
"80.837 48 OFFCURVE",
"88 55.163 OFFCURVE",
"88 64 CURVE SMOOTH",
"88 72.837 OFFCURVE",
"80.837 80 OFFCURVE",
"72 80 CURVE SMOOTH",
"24 80 LINE SMOOTH",
"15.163 80 OFFCURVE",
"8 72.837 OFFCURVE",
"8 64 CURVE SMOOTH",
"8 16.0024 LINE SMOOTH",
"8 7.163 OFFCURVE",
"15.163 0 OFFCURVE",
"24 0 CURVE SMOOTH",
"120 0 LINE SMOOTH",
"128.837 0 OFFCURVE",
"136 7.163 OFFCURVE",
"136 16 CURVE SMOOTH",
"136 112 LINE SMOOTH",
"136 120.837 OFFCURVE",
"128.837 128 OFFCURVE",
"120 128 CURVE SMOOTH"
);
}
);
width = 144;
}
);
unicode = 0041;
},
{
glyphname = B;
lastChange = "2013-06-03 21:25:42 +0200";
layers = (
{
layerId = "940E2F63-624A-4C3D-A909-721782B4CF41";
name = Regular;
paths = (
{
closed = 1;
nodes = (
"24 128 LINE SMOOTH",
"15.163 128 OFFCURVE",
"8 120.837 OFFCURVE",
"8 112 CURVE SMOOTH",
"8 16.0024 LINE SMOOTH",
"8 7.163 OFFCURVE",
"15.163 0 OFFCURVE",
"24 0 CURVE SMOOTH",
"32.837 0 OFFCURVE",
"40 7.163 OFFCURVE",
"40 16 CURVE SMOOTH",
"40 96 LINE",
"104 96 LINE",
"104 80 LINE",
"72 80 LINE SMOOTH",
"63.163 80 OFFCURVE",
"56 72.837 OFFCURVE",
"56 64 CURVE SMOOTH",
"56 55.163 OFFCURVE",
"63.163 48 OFFCURVE",
"72 48 CURVE SMOOTH",
"104 48 LINE",
"104 32 LINE",
"72 32 LINE SMOOTH",
"63.163 32 OFFCURVE",
"56 24.837 OFFCURVE",
"56 16 CURVE SMOOTH",
"56 7.163 OFFCURVE",
"63.163 0 OFFCURVE",
"72 0 CURVE SMOOTH",
"120 0 LINE SMOOTH",
"128.837 0 OFFCURVE",
"136 7.163 OFFCURVE",
"136 16 CURVE SMOOTH",
"136 112 LINE SMOOTH",
"136 120.837 OFFCURVE",
"128.837 128 OFFCURVE",
"120 128 CURVE SMOOTH"
);
}
);
width = 144;
}
);
unicode = 0042;
},
{
glyphname = C;
lastChange = "2013-06-03 21:26:55 +0200";
layers = (
{
layerId = "940E2F63-624A-4C3D-A909-721782B4CF41";
name = Regular;
paths = (
{
closed = 1;
nodes = (
"40 32 LINE",
"40 96 LINE",
"120 96 LINE SMOOTH",
"128.837 96 OFFCURVE",
"136 103.163 OFFCURVE",
"136 112 CURVE SMOOTH",
"136 120.837 OFFCURVE",
"128.837 128 OFFCURVE",
"120 128 CURVE SMOOTH",
"24 128 LINE SMOOTH",
"15.163 128 OFFCURVE",
"8 120.837 OFFCURVE",
"8 112 CURVE SMOOTH",
"8 16.0024 LINE SMOOTH",
"8 7.163 OFFCURVE",
"15.163 0 OFFCURVE",
"24 0 CURVE SMOOTH",
"120 0 LINE SMOOTH",
"128.837 0 OFFCURVE",
"136 7.163 OFFCURVE",
"136 16 CURVE SMOOTH",
"136 24.837 OFFCURVE",
"128.837 32 OFFCURVE",
"120 32 CURVE SMOOTH"
);
}
);
width = 144;
}
);
unicode = 0043;
},
{
glyphname = D;
lastChange = "2013-06-03 21:28:08 +0200";
layers = (
{
layerId = "940E2F63-624A-4C3D-A909-721782B4CF41";
name = Regular;
paths = (
{
closed = 1;
nodes = (
"24 128 LINE SMOOTH",
"15.163 128 OFFCURVE",
"8 120.837 OFFCURVE",
"8 112 CURVE SMOOTH",
"8 103.163 OFFCURVE",
"15.163 96 OFFCURVE",
"24 96 CURVE SMOOTH",
"104 96 LINE",
"104 32 LINE",
"40 32 LINE",
"40 64 LINE SMOOTH",
"40 72.837 OFFCURVE",
"32.837 80 OFFCURVE",
"24 80 CURVE SMOOTH",
"15.163 80 OFFCURVE",
"8 72.837 OFFCURVE",
"8 64 CURVE SMOOTH",
"8 16 LINE SMOOTH",
"8 7.163 OFFCURVE",
"15.163 0 OFFCURVE",
"24 0 CURVE SMOOTH",
"120 0 LINE SMOOTH",
"128.837 0 OFFCURVE",
"136 7.163 OFFCURVE",
"136 16 CURVE SMOOTH",
"136 112 LINE SMOOTH",
"136 120.837 OFFCURVE",
"128.837 128 OFFCURVE",
"120 128 CURVE SMOOTH"
);
}
);
width = 144;
}
);
unicode = 0044;
},
{
glyphname = E;
lastChange = "2013-06-03 21:29:51 +0200";
layers = (
{
layerId = "940E2F63-624A-4C3D-A909-721782B4CF41";
name = Regular;
paths = (
{
closed = 1;
nodes = (
"120 48 LINE SMOOTH",
"128.837 48 OFFCURVE",
"136 55.163 OFFCURVE",
"136 64 CURVE SMOOTH",
"136 112 LINE SMOOTH",
"136 120.837 OFFCURVE",
"128.837 128 OFFCURVE",
"120 128 CURVE SMOOTH",
"72 128 LINE SMOOTH",
"63.163 128 OFFCURVE",
"56 120.837 OFFCURVE",
"56 112 CURVE SMOOTH",
"56 103.163 OFFCURVE",
"63.163 96 OFFCURVE",
"72 96 CURVE SMOOTH",
"104 96 LINE",
"104 80 LINE",
"40 80 LINE",
"40 112 LINE SMOOTH",
"40 120.837 OFFCURVE",
"32.837 128 OFFCURVE",
"24 128 CURVE SMOOTH",
"15.163 128 OFFCURVE",
"8 120.837 OFFCURVE",
"8 112 CURVE SMOOTH",
"8 16.0024 LINE SMOOTH",
"8 7.163 OFFCURVE",
"15.163 0 OFFCURVE",
"24 0 CURVE SMOOTH",
"120 0 LINE SMOOTH",
"128.837 0 OFFCURVE",
"136 7.163 OFFCURVE",
"136 16 CURVE SMOOTH",
"136 24.837 OFFCURVE",
"128.837 32 OFFCURVE",
"120 32 CURVE SMOOTH",
"40 32 LINE",
"40 48 LINE"
);
}
);
width = 144;
}
);
unicode = 0045;
},
{
glyphname = F;
lastChange = "2013-06-03 21:30:59 +0200";
layers = (
{
layerId = "940E2F63-624A-4C3D-A909-721782B4CF41";
name = Regular;
paths = (
{
closed = 1;
nodes = (
"40 80 LINE",
"40 96 LINE",
"120 96 LINE SMOOTH",
"128.837 96 OFFCURVE",
"136 103.163 OFFCURVE",
"136 112 CURVE SMOOTH",
"136 120.837 OFFCURVE",
"128.837 128 OFFCURVE",
"120 128 CURVE SMOOTH",
"24 128 LINE SMOOTH",
"15.163 128 OFFCURVE",
"8 120.837 OFFCURVE",
"8 112 CURVE SMOOTH",
"8 16 LINE SMOOTH",
"8 7.163 OFFCURVE",
"15.163 0 OFFCURVE",
"24 0 CURVE SMOOTH",
"32.837 0 OFFCURVE",
"40 7.163 OFFCURVE",
"40 16 CURVE SMOOTH",
"40 48 LINE",
"120 48 LINE SMOOTH",
"128.837 48 OFFCURVE",
"136 55.163 OFFCURVE",
"136 64 CURVE SMOOTH",
"136 72.837 OFFCURVE",
"128.837 80 OFFCURVE",
"120 80 CURVE SMOOTH"
);
}
);
width = 144;
}
);
unicode = 0046;
},
{
glyphname = H;
lastChange = "2013-06-03 21:31:37 +0200";
layers = (
{
layerId = "940E2F63-624A-4C3D-A909-721782B4CF41";
name = Regular;
paths = (
{
closed = 1;
nodes = (
"104 80 LINE",
"40 80 LINE",
"40 112 LINE SMOOTH",
"40 120.837 OFFCURVE",
"32.837 128 OFFCURVE",
"24 128 CURVE SMOOTH",
"15.163 128 OFFCURVE",
"8 120.837 OFFCURVE",
"8 112 CURVE SMOOTH",
"8 16.0024 LINE SMOOTH",
"8 7.163 OFFCURVE",
"15.163 0 OFFCURVE",
"24 0 CURVE SMOOTH",
"32.837 0 OFFCURVE",
"40 7.163 OFFCURVE",
"40 16 CURVE SMOOTH",
"40 48 LINE",
"104 48 LINE",
"104 16.0024 LINE SMOOTH",
"104 7.163 OFFCURVE",
"111.163 0 OFFCURVE",
"120 0 CURVE SMOOTH",
"128.837 0 OFFCURVE",
"136 7.163 OFFCURVE",
"136 16 CURVE SMOOTH",
"136 112 LINE SMOOTH",
"136 120.837 OFFCURVE",
"128.837 128 OFFCURVE",
"120 128 CURVE SMOOTH",
"111.163 128 OFFCURVE",
"104 120.837 OFFCURVE",
"104 112 CURVE SMOOTH"
);
}
);
width = 144;
}
);
unicode = 0048;
},
{
glyphname = J;
lastChange = "2013-06-03 21:33:27 +0200";
layers = (
{
layerId = "940E2F63-624A-4C3D-A909-721782B4CF41";
name = Regular;
paths = (
{
closed = 1;
nodes = (
"72 128 LINE SMOOTH",
"63.163 128 OFFCURVE",
"56 120.837 OFFCURVE",
"56 112 CURVE SMOOTH",
"56 103.163 OFFCURVE",
"63.163 96 OFFCURVE",
"72 96 CURVE SMOOTH",
"104 96 LINE",
"104 32 LINE",
"24 32 LINE SMOOTH",
"15.163 32 OFFCURVE",
"8 24.837 OFFCURVE",
"8 16 CURVE SMOOTH",
"8 7.163 OFFCURVE",
"15.163 0 OFFCURVE",
"24 0 CURVE SMOOTH",
"120 0 LINE SMOOTH",
"128.837 0 OFFCURVE",
"136 7.163 OFFCURVE",
"136 16 CURVE SMOOTH",
"136 112 LINE SMOOTH",
"136 120.837 OFFCURVE",
"128.837 128 OFFCURVE",
"120 128 CURVE SMOOTH"
);
}
);
width = 144;
}
);
unicode = 004A;
},
{
glyphname = K;
lastChange = "2013-06-06 02:14:43 +0200";
layers = (
{
layerId = "940E2F63-624A-4C3D-A909-721782B4CF41";
name = Regular;
paths = (
{
closed = 1;
nodes = (
"88 80 LINE",
"88 96 LINE",
"120 96 LINE SMOOTH",
"128.837 96 OFFCURVE",
"136 103.163 OFFCURVE",
"136 112 CURVE SMOOTH",
"136 120.837 OFFCURVE",
"128.837 128 OFFCURVE",
"120 128 CURVE SMOOTH",
"72 128 LINE SMOOTH",
"63.163 128 OFFCURVE",
"56 120.837 OFFCURVE",
"56 112 CURVE SMOOTH",
"56 80 LINE",
"40 80 LINE",
"40 112 LINE SMOOTH",
"40 120.837 OFFCURVE",
"32.837 128 OFFCURVE",
"24 128 CURVE SMOOTH",
"15.163 128 OFFCURVE",
"8 120.837 OFFCURVE",
"8 112 CURVE SMOOTH",
"8 16.0024 LINE SMOOTH",
"8 7.163 OFFCURVE",
"15.163 0 OFFCURVE",
"24 0 CURVE SMOOTH",
"32.837 0 OFFCURVE",
"40 7.163 OFFCURVE",
"40 16 CURVE SMOOTH",
"40 48 LINE",
"104 48 LINE",
"104 16.0024 LINE SMOOTH",
"104 7.163 OFFCURVE",
"111.163 0 OFFCURVE",
"120 0 CURVE SMOOTH",
"128.837 0 OFFCURVE",
"136 7.163 OFFCURVE",
"136 16 CURVE SMOOTH",
"136 64 LINE SMOOTH",
"136 72.837 OFFCURVE",
"128.837 80 OFFCURVE",
"120 80 CURVE SMOOTH"
);
}
);
width = 144;
}
);
unicode = 004B;
},
{
glyphname = L;
lastChange = "2013-06-06 02:15:34 +0200";
layers = (
{
layerId = "940E2F63-624A-4C3D-A909-721782B4CF41";
name = Regular;
paths = (
{
closed = 1;
nodes = (
"40 32 LINE",
"40 112 LINE SMOOTH",
"40 120.837 OFFCURVE",
"32.837 128 OFFCURVE",
"24 128 CURVE SMOOTH",
"15.163 128 OFFCURVE",
"8 120.837 OFFCURVE",
"8 112 CURVE SMOOTH",
"8 16 LINE SMOOTH",
"8 7.163 OFFCURVE",
"15.163 0 OFFCURVE",
"24 0 CURVE SMOOTH",
"120 0 LINE SMOOTH",
"128.837 0 OFFCURVE",
"136 7.163 OFFCURVE",
"136 16 CURVE SMOOTH",
"136 24.837 OFFCURVE",
"128.837 32 OFFCURVE",
"120 32 CURVE SMOOTH"
);
}
);
width = 144;
}
);
unicode = 004C;
},
{
glyphname = M;
lastChange = "2013-06-06 02:16:41 +0200";
layers = (
{
layerId = "940E2F63-624A-4C3D-A909-721782B4CF41";
name = Regular;
paths = (
{
closed = 1;
nodes = (
"24 128 LINE SMOOTH",
"15.163 128 OFFCURVE",
"8 120.837 OFFCURVE",
"8 112 CURVE SMOOTH",
"8 16.0024 LINE SMOOTH",
"8 7.163 OFFCURVE",
"15.163 0 OFFCURVE",
"24 0 CURVE SMOOTH",
"32.837 0 OFFCURVE",
"40 7.163 OFFCURVE",
"40 16 CURVE SMOOTH",
"40 96 LINE",
"56 96 LINE",
"56 16.0024 LINE SMOOTH",
"56 7.163 OFFCURVE",
"63.163 0 OFFCURVE",
"72 0 CURVE SMOOTH",
"80.837 0 OFFCURVE",
"88 7.163 OFFCURVE",
"88 16 CURVE SMOOTH",
"88 96 LINE",
"104 96 LINE",
"104 16.0024 LINE SMOOTH",
"104 7.163 OFFCURVE",
"111.163 0 OFFCURVE",
"120 0 CURVE SMOOTH",
"128.837 0 OFFCURVE",
"136 7.163 OFFCURVE",
"136 16 CURVE SMOOTH",
"136 112 LINE SMOOTH",
"136 120.837 OFFCURVE",
"128.837 128 OFFCURVE",
"120 128 CURVE SMOOTH"
);
}
);
width = 144;
}
);
unicode = 004D;
},
{
glyphname = N;
lastChange = "2013-06-06 02:18:09 +0200";
layers = (
{
layerId = "940E2F63-624A-4C3D-A909-721782B4CF41";
name = Regular;
paths = (
{
closed = 1;
nodes = (
"104 32 LINE",
"88 32 LINE",
"88 112 LINE SMOOTH",
"88 120.837 OFFCURVE",
"80.837 128 OFFCURVE",
"72 128 CURVE SMOOTH",
"24 128 LINE SMOOTH",
"15.163 128 OFFCURVE",
"8 120.837 OFFCURVE",
"8 112 CURVE SMOOTH",
"8 16.0024 LINE SMOOTH",
"8 7.163 OFFCURVE",
"15.163 0 OFFCURVE",
"24 0 CURVE SMOOTH",
"32.837 0 OFFCURVE",
"40 7.163 OFFCURVE",
"40 16 CURVE SMOOTH",
"40 96 LINE",
"56 96 LINE",
"56 16.0024 LINE SMOOTH",
"56 7.163 OFFCURVE",
"63.163 0 OFFCURVE",
"72 0 CURVE SMOOTH",
"120 0 LINE SMOOTH",
"128.837 0 OFFCURVE",
"136 7.163 OFFCURVE",
"136 16 CURVE SMOOTH",
"136 112 LINE SMOOTH",
"136 120.837 OFFCURVE",
"128.837 128 OFFCURVE",
"120 128 CURVE SMOOTH",
"111.163 128 OFFCURVE",
"104 120.837 OFFCURVE",
"104 112 CURVE SMOOTH"
);
}
);
width = 144;
}
);
unicode = 004E;
},
{
glyphname = O;
lastChange = "2013-06-06 02:19:22 +0200";
layers = (
{
layerId = "940E2F63-624A-4C3D-A909-721782B4CF41";
name = Regular;
paths = (
{
closed = 1;
nodes = (
"24 128 LINE SMOOTH",
"15.163 128 OFFCURVE",
"8 120.837 OFFCURVE",
"8 112 CURVE SMOOTH",
"8 16.0024 LINE SMOOTH",
"8 7.163 OFFCURVE",
"15.163 0 OFFCURVE",
"24 0 CURVE SMOOTH",
"120 0 LINE SMOOTH",
"128.837 0 OFFCURVE",
"136 7.163 OFFCURVE",
"136 16 CURVE SMOOTH",
"136 112 LINE SMOOTH",
"136 120.837 OFFCURVE",
"128.837 128 OFFCURVE",
"120 128 CURVE SMOOTH"
);
},
{
closed = 1;
nodes = (
"40 96 LINE",
"104 96 LINE",
"104 32 LINE",
"40 32 LINE"
);
}
);
width = 144;
}
);
unicode = 004F;
},
{
glyphname = P;
lastChange = "2013-06-06 02:22:16 +0200";
layers = (
{
layerId = "940E2F63-624A-4C3D-A909-721782B4CF41";
name = Regular;
paths = (
{
closed = 1;
nodes = (
"24 128 LINE SMOOTH",
"15.163 128 OFFCURVE",
"8 120.837 OFFCURVE",
"8 112 CURVE SMOOTH",
"8 16.0024 LINE SMOOTH",
"8 7.163 OFFCURVE",
"15.163 0 OFFCURVE",
"24 0 CURVE SMOOTH",
"32.837 0 OFFCURVE",
"40 7.163 OFFCURVE",
"40 16 CURVE SMOOTH",
"40 96 LINE",
"104 96 LINE",
"104 80 LINE",
"72 80 LINE SMOOTH",
"63.163 80 OFFCURVE",
"56 72.837 OFFCURVE",
"56 64 CURVE SMOOTH",
"56 55.163 OFFCURVE",
"63.163 48 OFFCURVE",
"72 48 CURVE SMOOTH",
"120 48 LINE SMOOTH",
"128.837 48 OFFCURVE",
"136 55.163 OFFCURVE",
"136 64 CURVE SMOOTH",
"136 112 LINE SMOOTH",
"136 120.837 OFFCURVE",
"128.837 128 OFFCURVE",
"120 128 CURVE SMOOTH"
);
}
);
width = 144;
}
);
unicode = 0050;
},
{
glyphname = Q;
lastChange = "2013-06-06 02:23:19 +0200";
layers = (
{
layerId = "940E2F63-624A-4C3D-A909-721782B4CF41";
name = Regular;
paths = (
{
closed = 1;
nodes = (
"24 128 LINE SMOOTH",
"15.163 128 OFFCURVE",
"8 120.837 OFFCURVE",
"8 112 CURVE SMOOTH",
"8 16.0024 LINE SMOOTH",
"8 7.163 OFFCURVE",
"15.163 0 OFFCURVE",
"24 0 CURVE SMOOTH",
"120 0 LINE SMOOTH",
"128.837 0 OFFCURVE",
"136 7.163 OFFCURVE",
"136 16 CURVE SMOOTH",
"136 112 LINE SMOOTH",
"136 120.837 OFFCURVE",
"128.837 128 OFFCURVE",
"120 128 CURVE SMOOTH"
);
},
{
closed = 1;
nodes = (
"88 64 LINE SMOOTH",
"88 72.837 OFFCURVE",
"80.837 80 OFFCURVE",
"72 80 CURVE SMOOTH",
"63.163 80 OFFCURVE",
"56 72.837 OFFCURVE",
"56 64 CURVE SMOOTH",
"56 32 LINE",
"40 32 LINE",
"40 96 LINE",
"104 96 LINE",
"104 32 LINE",
"88 32 LINE"
);
}
);
width = 144;
}
);
unicode = 0051;
},
{
glyphname = R;
lastChange = "2013-06-06 02:24:36 +0200";
layers = (
{
layerId = "940E2F63-624A-4C3D-A909-721782B4CF41";
name = Regular;
paths = (
{
closed = 1;
nodes = (
"120 48 LINE SMOOTH",
"128.837 48 OFFCURVE",
"136 55.163 OFFCURVE",
"136 64 CURVE SMOOTH",
"136 112 LINE SMOOTH",
"136 120.837 OFFCURVE",
"128.837 128 OFFCURVE",
"120 128 CURVE SMOOTH",
"24 128 LINE SMOOTH",
"15.163 128 OFFCURVE",
"8 120.837 OFFCURVE",
"8 112 CURVE SMOOTH",
"8 16.0024 LINE SMOOTH",
"8 7.163 OFFCURVE",
"15.163 0 OFFCURVE",
"24 0 CURVE SMOOTH",
"32.837 0 OFFCURVE",
"40 7.163 OFFCURVE",
"40 16 CURVE SMOOTH",
"40 96 LINE",
"104 96 LINE",
"104 80 LINE",
"72 80 LINE SMOOTH",
"63.163 80 OFFCURVE",
"56 72.837 OFFCURVE",
"56 64 CURVE SMOOTH",
"56 16.0024 LINE SMOOTH",
"56 7.163 OFFCURVE",
"63.163 0 OFFCURVE",
"72 0 CURVE SMOOTH",
"119.946 0 LINE SMOOTH",
"128.837 0 OFFCURVE",
"136 7.163 OFFCURVE",
"136 16 CURVE SMOOTH",
"136 24.837 OFFCURVE",
"128.837 32 OFFCURVE",
"120 32 CURVE SMOOTH",
"88 32 LINE",
"88 48 LINE"
);
}
);
width = 144;
}
);
unicode = 0052;
},
{
glyphname = T;
lastChange = "2013-06-06 02:25:08 +0200";
layers = (
{
layerId = "940E2F63-624A-4C3D-A909-721782B4CF41";
name = Regular;
paths = (
{
closed = 1;
nodes = (
"24 128 LINE SMOOTH",
"15.163 128 OFFCURVE",
"8 120.837 OFFCURVE",
"8 112 CURVE SMOOTH",
"8 103.163 OFFCURVE",
"15.163 96 OFFCURVE",
"24 96 CURVE SMOOTH",
"56 96 LINE",
"56 16.0024 LINE SMOOTH",
"56 7.163 OFFCURVE",
"63.163 0 OFFCURVE",
"72 0 CURVE SMOOTH",
"80.837 0 OFFCURVE",
"88 7.163 OFFCURVE",
"88 16 CURVE SMOOTH",
"88 96 LINE",
"120 96 LINE SMOOTH",
"128.837 96 OFFCURVE",
"136 103.163 OFFCURVE",
"136 112 CURVE SMOOTH",
"136 120.837 OFFCURVE",
"128.837 128 OFFCURVE",
"120 128 CURVE SMOOTH"
);
}
);
width = 144;
}
);
unicode = 0054;
},
{
glyphname = V;
lastChange = "2013-06-06 02:26:12 +0200";
layers = (
{
layerId = "940E2F63-624A-4C3D-A909-721782B4CF41";
name = Regular;
paths = (
{
closed = 1;
nodes = (
"104 80 LINE",
"72 80 LINE SMOOTH",
"63.163 80 OFFCURVE",
"56 72.837 OFFCURVE",
"56 64 CURVE SMOOTH",
"56 32 LINE",
"40 32 LINE",
"40 112 LINE SMOOTH",
"40 120.837 OFFCURVE",
"32.837 128 OFFCURVE",
"24 128 CURVE SMOOTH",
"15.163 128 OFFCURVE",
"8 120.837 OFFCURVE",
"8 112 CURVE SMOOTH",
"8 16 LINE SMOOTH",
"8 6.9121 OFFCURVE",
"15.163 0 OFFCURVE",
"24 0 CURVE SMOOTH",
"72 0 LINE SMOOTH",
"80.837 0 OFFCURVE",
"88 7.1631 OFFCURVE",
"88 16 CURVE SMOOTH",
"88 48 LINE",
"120 48 LINE SMOOTH",
"128.837 48 OFFCURVE",
"136 55.1631 OFFCURVE",
"136 64 CURVE SMOOTH",
"136 112 LINE SMOOTH",
"136 120.837 OFFCURVE",
"128.837 128 OFFCURVE",
"120 128 CURVE SMOOTH",
"111.163 128 OFFCURVE",
"104 120.837 OFFCURVE",
"104 112 CURVE SMOOTH"
);
}
);
width = 144;
}
);
unicode = 0056;
},
{
glyphname = X;
lastChange = "2013-06-06 02:27:33 +0200";
layers = (
{
layerId = "940E2F63-624A-4C3D-A909-721782B4CF41";
name = Regular;
paths = (
{
closed = 1;
nodes = (
"104 32 LINE",
"88 32 LINE",
"88 96 LINE",
"120 96 LINE SMOOTH",
"128.837 96 OFFCURVE",
"136 103.163 OFFCURVE",
"136 112 CURVE SMOOTH",
"136 120.837 OFFCURVE",
"128.837 128 OFFCURVE",
"120 128 CURVE SMOOTH",
"24 128 LINE SMOOTH",
"15.163 128 OFFCURVE",
"8 120.837 OFFCURVE",
"8 112 CURVE SMOOTH",
"8 64.0024 LINE SMOOTH",
"8 55.163 OFFCURVE",
"15.163 48 OFFCURVE",
"24 48 CURVE SMOOTH",
"32.837 48 OFFCURVE",
"40 55.163 OFFCURVE",
"40 64 CURVE SMOOTH",
"40 96 LINE",
"56 96 LINE",
"56 32 LINE",
"24 32 LINE SMOOTH",
"15.163 32 OFFCURVE",
"8 24.837 OFFCURVE",
"8 16 CURVE SMOOTH",
"8 7.163 OFFCURVE",
"15.163 0 OFFCURVE",
"24 0 CURVE SMOOTH",
"120 0 LINE SMOOTH",
"128.837 0 OFFCURVE",
"136 7.163 OFFCURVE",
"136 16 CURVE SMOOTH",
"136 64 LINE SMOOTH",
"136 72.837 OFFCURVE",
"128.837 80 OFFCURVE",
"120 80 CURVE SMOOTH",
"111.163 80 OFFCURVE",
"104 72.837 OFFCURVE",
"104 64 CURVE SMOOTH"
);
}
);
width = 144;
}
);
unicode = 0058;
},
{
glyphname = Y;
lastChange = "2013-06-06 02:28:25 +0200";
layers = (
{
layerId = "940E2F63-624A-4C3D-A909-721782B4CF41";
name = Regular;
paths = (
{
closed = 1;
nodes = (
"136 112 LINE SMOOTH",
"136 120.837 OFFCURVE",
"128.837 128 OFFCURVE",
"120 128 CURVE SMOOTH",
"111.163 128 OFFCURVE",
"104 120.837 OFFCURVE",
"104 112 CURVE SMOOTH",
"104 80 LINE",
"40 80 LINE",
"40 112 LINE SMOOTH",
"40 120.837 OFFCURVE",
"32.837 128 OFFCURVE",
"24 128 CURVE SMOOTH",
"15.163 128 OFFCURVE",
"8 120.837 OFFCURVE",
"8 112 CURVE SMOOTH",
"8 64.0024 LINE SMOOTH",
"8 55.163 OFFCURVE",
"15.163 48 OFFCURVE",
"24 48 CURVE SMOOTH",
"104 48 LINE",
"104 32 LINE",
"24 32 LINE SMOOTH",
"15.163 32 OFFCURVE",
"8 24.837 OFFCURVE",
"8 16 CURVE SMOOTH",
"8 7.163 OFFCURVE",
"15.163 0 OFFCURVE",
"24 0 CURVE SMOOTH",
"120 0 LINE SMOOTH",
"128.837 0 OFFCURVE",
"136 7.163 OFFCURVE",
"136 16 CURVE SMOOTH"
);
}
);
width = 144;
}
);
unicode = 0059;
},
{
glyphname = zero;
lastChange = "2013-06-06 02:30:48 +0200";
layers = (
{
components = (
{
name = O;
transform = "{1, 0, 0, 1, 0, 0}";
}
);
layerId = "940E2F63-624A-4C3D-A909-721782B4CF41";
name = Regular;
paths = (
{
closed = 1;
nodes = (
"80.8366 48 OFFCURVE",
"88 55.1634 OFFCURVE",
"88 64 CURVE SMOOTH",
"88 72.8366 OFFCURVE",
"80.8366 80 OFFCURVE",
"72 80 CURVE SMOOTH",
"63.1634 80 OFFCURVE",
"56 72.8366 OFFCURVE",
"56 64 CURVE SMOOTH",
"56 55.1634 OFFCURVE",
"63.1634 48 OFFCURVE",
"72 48 CURVE SMOOTH"
);
}
);
width = 144;
}
);
unicode = 0030;
},
{
glyphname = one;
lastChange = "2013-06-11 04:57:50 +0200";
layers = (
{
layerId = "940E2F63-624A-4C3D-A909-721782B4CF41";
name = Regular;
paths = (
{
closed = 1;
nodes = (
"88 32 LINE",
"88 112 LINE SMOOTH",
"88 120.837 OFFCURVE",
"80.837 128 OFFCURVE",
"72 128 CURVE SMOOTH",
"24 128 LINE SMOOTH",
"15.163 128 OFFCURVE",
"8 120.837 OFFCURVE",
"8 112 CURVE SMOOTH",
"8 103.163 OFFCURVE",
"15.163 96 OFFCURVE",
"24 96 CURVE SMOOTH",
"56 96 LINE",
"56 32 LINE",
"24 32 LINE SMOOTH",
"15.163 32 OFFCURVE",
"8 24.837 OFFCURVE",
"8 16 CURVE SMOOTH",
"8 7.163 OFFCURVE",
"15.163 0 OFFCURVE",
"24 0 CURVE SMOOTH",
"120 0 LINE SMOOTH",
"128.837 0 OFFCURVE",
"136 7.163 OFFCURVE",
"136 16 CURVE SMOOTH",
"136 24.837 OFFCURVE",
"128.837 32 OFFCURVE",
"120 32 CURVE SMOOTH"
);
}
);
width = 144;
}
);
unicode = 0031;
},
{
glyphname = four;
lastChange = "2013-06-11 04:58:35 +0200";
layers = (
{
layerId = "940E2F63-624A-4C3D-A909-721782B4CF41";
name = Regular;
paths = (
{
closed = 1;
nodes = (
"104 80 LINE",
"40 80 LINE",
"40 112 LINE SMOOTH",
"40 120.837 OFFCURVE",
"32.837 128 OFFCURVE",
"24 128 CURVE SMOOTH",
"15.163 128 OFFCURVE",
"8 120.837 OFFCURVE",
"8 112 CURVE SMOOTH",
"8 64 LINE SMOOTH",
"8 55.163 OFFCURVE",
"15.163 48 OFFCURVE",
"24 48 CURVE SMOOTH",
"104 48 LINE",
"104 16.0024 LINE SMOOTH",
"104 7.163 OFFCURVE",
"111.163 0 OFFCURVE",
"120 0 CURVE SMOOTH",
"128.837 0 OFFCURVE",
"136 7.163 OFFCURVE",
"136 16 CURVE SMOOTH",
"136 112 LINE SMOOTH",
"136 120.837 OFFCURVE",
"128.837 128 OFFCURVE",
"120 128 CURVE SMOOTH",
"111.163 128 OFFCURVE",
"104 120.837 OFFCURVE",
"104 112 CURVE SMOOTH"
);
}
);
width = 144;
}
);
unicode = 0034;
},
{
glyphname = seven;
lastChange = "2013-06-11 04:59:44 +0200";
layers = (
{
layerId = "940E2F63-624A-4C3D-A909-721782B4CF41";
name = Regular;
paths = (
{
closed = 1;
nodes = (
"24 128 LINE SMOOTH",
"15.163 128 OFFCURVE",
"8 120.837 OFFCURVE",
"8 112 CURVE SMOOTH",
"8 103.163 OFFCURVE",
"15.163 96 OFFCURVE",
"24 96 CURVE SMOOTH",
"104 96 LINE",
"104 80 LINE",
"72 80 LINE SMOOTH",
"63.163 80 OFFCURVE",
"56 72.837 OFFCURVE",
"56 64 CURVE SMOOTH",
"56 16.0024 LINE SMOOTH",
"56 7.163 OFFCURVE",
"63.163 0 OFFCURVE",
"72 0 CURVE SMOOTH",
"80.837 0 OFFCURVE",
"88 7.163 OFFCURVE",
"88 16 CURVE SMOOTH",
"88 48 LINE",
"120 48 LINE SMOOTH",
"128.837 48 OFFCURVE",
"136 55.163 OFFCURVE",
"136 64 CURVE SMOOTH",
"136 112 LINE SMOOTH",
"136 120.837 OFFCURVE",
"128.837 128 OFFCURVE",
"120 128 CURVE SMOOTH"
);
}
);
width = 144;
}
);
unicode = 0037;
},
{
glyphname = eight;
lastChange = "2013-06-11 05:00:55 +0200";
layers = (
{
layerId = "940E2F63-624A-4C3D-A909-721782B4CF41";
name = Regular;
paths = (
{
closed = 1;
nodes = (
"24 128 LINE SMOOTH",
"15.163 128 OFFCURVE",
"8 120.837 OFFCURVE",
"8 112 CURVE SMOOTH",
"8 16.0024 LINE SMOOTH",
"8 7.163 OFFCURVE",
"15.163 0 OFFCURVE",
"24 0 CURVE SMOOTH",
"120 0 LINE SMOOTH",
"128.837 0 OFFCURVE",
"136 7.163 OFFCURVE",
"136 16 CURVE SMOOTH",
"136 112 LINE SMOOTH",
"136 120.837 OFFCURVE",
"128.837 128 OFFCURVE",
"120 128 CURVE SMOOTH"
);
},
{
closed = 1;
nodes = (
"40 96 LINE",
"104 96 LINE",
"104 80 LINE",
"40 80 LINE"
);
},
{
closed = 1;
nodes = (
"40 48 LINE",
"104 48 LINE",
"104 32 LINE",
"40 32 LINE"
);
}
);
width = 144;
}
);
unicode = 0038;
},
{
glyphname = asterisk;
lastChange = "2013-06-11 05:01:12 +0200";
layers = (
{
components = (
{
name = plus;
transform = "{1, 0, 0, 1, 0, 0}";
}
);
layerId = "940E2F63-624A-4C3D-A909-721782B4CF41";
name = Regular;
paths = (
{
closed = 1;
nodes = (
"32.8366 96 OFFCURVE",
"40 103.163 OFFCURVE",
"40 112 CURVE SMOOTH",
"40 120.837 OFFCURVE",
"32.8366 128 OFFCURVE",
"24 128 CURVE SMOOTH",
"15.1634 128 OFFCURVE",
"8 120.837 OFFCURVE",
"8 112 CURVE SMOOTH",
"8 103.163 OFFCURVE",
"15.1634 96 OFFCURVE",
"24 96 CURVE SMOOTH"
);
},
{
closed = 1;
nodes = (
"128.837 96 OFFCURVE",
"136 103.163 OFFCURVE",
"136 112 CURVE SMOOTH",
"136 120.837 OFFCURVE",
"128.837 128 OFFCURVE",
"120 128 CURVE SMOOTH",
"111.163 128 OFFCURVE",
"104 120.837 OFFCURVE",
"104 112 CURVE SMOOTH",
"104 103.163 OFFCURVE",
"111.163 96 OFFCURVE",
"120 96 CURVE SMOOTH"
);
},
{
closed = 1;
nodes = (
"128.837 0 OFFCURVE",
"136 7.16336 OFFCURVE",
"136 16 CURVE SMOOTH",
"136 24.8366 OFFCURVE",
"128.837 32 OFFCURVE",
"120 32 CURVE SMOOTH",
"111.163 32 OFFCURVE",
"104 24.8366 OFFCURVE",
"104 16 CURVE SMOOTH",
"104 7.16336 OFFCURVE",
"111.163 0 OFFCURVE",
"120 0 CURVE SMOOTH"
);
},
{
closed = 1;
nodes = (
"32.8366 0 OFFCURVE",
"40 7.16336 OFFCURVE",
"40 16 CURVE SMOOTH",
"40 24.8366 OFFCURVE",
"32.8366 32 OFFCURVE",
"24 32 CURVE SMOOTH",
"15.1634 32 OFFCURVE",
"8 24.8366 OFFCURVE",
"8 16 CURVE SMOOTH",
"8 7.16336 OFFCURVE",
"15.1634 0 OFFCURVE",
"24 0 CURVE SMOOTH"
);
}
);
width = 144;
}
);
unicode = 002A;
},
{
glyphname = backslash;
lastChange = "2013-06-11 05:01:54 +0200";
layers = (
{
layerId = "940E2F63-624A-4C3D-A909-721782B4CF41";
name = Regular;
paths = (
{
closed = 1;
nodes = (
"8 16 LINE SMOOTH",
"8 7.163 OFFCURVE",
"15.163 0 OFFCURVE",
"24 0 CURVE SMOOTH",
"32.837 0 OFFCURVE",
"40 7.163 OFFCURVE",
"40 16 CURVE SMOOTH",
"40 112 LINE SMOOTH",
"40 120.837 OFFCURVE",
"32.837 128 OFFCURVE",
"24 128 CURVE SMOOTH",
"15.163 128 OFFCURVE",
"8 120.837 OFFCURVE",
"8 112 CURVE SMOOTH"
);
},
{
closed = 1;
nodes = (
"56 16 LINE SMOOTH",
"56 7.163 OFFCURVE",
"63.163 0 OFFCURVE",
"72 0 CURVE SMOOTH",
"80.837 0 OFFCURVE",
"88 7.163 OFFCURVE",
"88 16 CURVE SMOOTH",
"88 112 LINE SMOOTH",
"88 120.837 OFFCURVE",
"80.837 128 OFFCURVE",
"72 128 CURVE SMOOTH",
"63.163 128 OFFCURVE",
"56 120.837 OFFCURVE",
"56 112 CURVE SMOOTH"
);
},
{
closed = 1;
nodes = (
"104 16.0024 LINE SMOOTH",
"104 7.163 OFFCURVE",
"111.163 0 OFFCURVE",
"120 0 CURVE SMOOTH",
"128.837 0 OFFCURVE",
"136 7.163 OFFCURVE",
"136 16 CURVE SMOOTH",
"136 112 LINE SMOOTH",
"136 120.837 OFFCURVE",
"128.837 128 OFFCURVE",
"120 128 CURVE SMOOTH",
"111.163 128 OFFCURVE",
"104 120.837 OFFCURVE",
"104 112 CURVE SMOOTH"
);
}
);
width = 144;
}
);
unicode = 005C;
},
{
glyphname = comma;
lastChange = "2013-06-11 05:03:15 +0200";
layers = (
{
layerId = "940E2F63-624A-4C3D-A909-721782B4CF41";
name = Regular;
paths = (
{
closed = 1;
nodes = (
"24 128 LINE SMOOTH",
"15.163 128 OFFCURVE",
"8 120.837 OFFCURVE",
"8 112 CURVE SMOOTH",
"8 16.0024 LINE SMOOTH",
"8 7.163 OFFCURVE",
"15.163 0 OFFCURVE",
"24 0 CURVE SMOOTH",
"120 0 LINE SMOOTH",
"128.837 0 OFFCURVE",
"136 7.163 OFFCURVE",
"136 16 CURVE SMOOTH",
"136 112 LINE SMOOTH",
"136 120.837 OFFCURVE",
"128.837 128 OFFCURVE",
"120 128 CURVE SMOOTH"
);
}
);
width = 144;
}
);
unicode = 002C;
},
{
glyphname = ellipsis;
lastChange = "2013-06-11 05:04:02 +0200";
layers = (
{
layerId = "940E2F63-624A-4C3D-A909-721782B4CF41";
name = Regular;
paths = (
{
closed = 1;
nodes = (
"120 96 LINE SMOOTH",
"128.837 96 OFFCURVE",
"136 103.163 OFFCURVE",
"136 112 CURVE SMOOTH",
"136 120.837 OFFCURVE",
"128.837 128 OFFCURVE",
"120 128 CURVE SMOOTH",
"24 128 LINE SMOOTH",
"15.163 128 OFFCURVE",
"8 120.837 OFFCURVE",
"8 112 CURVE SMOOTH",
"8 103.163 OFFCURVE",
"15.163 96 OFFCURVE",
"24 96 CURVE SMOOTH"
);
},
{
closed = 1;
nodes = (
"24 80 LINE SMOOTH",
"15.163 80 OFFCURVE",
"8 72.837 OFFCURVE",
"8 64 CURVE SMOOTH",
"8 55.163 OFFCURVE",
"15.163 48 OFFCURVE",
"24 48 CURVE SMOOTH",
"120 48 LINE SMOOTH",
"128.837 48 OFFCURVE",
"136 55.163 OFFCURVE",
"136 64 CURVE SMOOTH",
"136 72.837 OFFCURVE",
"128.837 80 OFFCURVE",
"120 80 CURVE SMOOTH"
);
},
{
closed = 1;
nodes = (
"15.163 32 OFFCURVE",
"8 24.837 OFFCURVE",
"8 16 CURVE SMOOTH",
"8 7.163 OFFCURVE",
"15.163 0 OFFCURVE",
"24 0 CURVE SMOOTH",
"32.837 0 OFFCURVE",
"40 7.163 OFFCURVE",
"40 16 CURVE SMOOTH",
"40 24.837 OFFCURVE",
"32.837 32 OFFCURVE",
"24 32 CURVE SMOOTH"
);
},
{
closed = 1;
nodes = (
"63.163 32 OFFCURVE",
"56 24.837 OFFCURVE",
"56 16 CURVE SMOOTH",
"56 7.163 OFFCURVE",
"63.163 0 OFFCURVE",
"72 0 CURVE SMOOTH",
"80.837 0 OFFCURVE",
"88 7.163 OFFCURVE",
"88 16 CURVE SMOOTH",
"88 24.837 OFFCURVE",
"80.837 32 OFFCURVE",
"72 32 CURVE SMOOTH"
);
},
{
closed = 1;
nodes = (
"111.163 32 OFFCURVE",
"104 24.837 OFFCURVE",
"104 16 CURVE SMOOTH",
"104 7.163 OFFCURVE",
"111.163 0 OFFCURVE",
"120 0 CURVE SMOOTH",
"128.837 0 OFFCURVE",
"136 7.163 OFFCURVE",
"136 16 CURVE SMOOTH",
"136 24.837 OFFCURVE",
"128.837 32 OFFCURVE",
"120 32 CURVE SMOOTH"
);
}
);
width = 144;
}
);
unicode = 2026;
},
{
glyphname = exclam;
lastChange = "2013-06-11 05:04:46 +0200";
layers = (
{
layerId = "940E2F63-624A-4C3D-A909-721782B4CF41";
name = Regular;
paths = (
{
closed = 1;
nodes = (
"8 64.0024 LINE SMOOTH",
"8 55.163 OFFCURVE",
"15.163 48 OFFCURVE",
"24 48 CURVE SMOOTH",
"32.837 48 OFFCURVE",
"40 55.163 OFFCURVE",
"40 64 CURVE SMOOTH",
"40 112 LINE SMOOTH",
"40 120.837 OFFCURVE",
"32.837 128 OFFCURVE",
"24 128 CURVE SMOOTH",
"15.163 128 OFFCURVE",
"8 120.837 OFFCURVE",
"8 112 CURVE SMOOTH"
);
},
{
closed = 1;
nodes = (
"56 64.0024 LINE SMOOTH",
"56 55.163 OFFCURVE",
"63.163 48 OFFCURVE",
"72 48 CURVE SMOOTH",
"80.837 48 OFFCURVE",
"88 55.163 OFFCURVE",
"88 64 CURVE SMOOTH",
"88 112 LINE SMOOTH",
"88 120.837 OFFCURVE",
"80.837 128 OFFCURVE",
"72 128 CURVE SMOOTH",
"63.163 128 OFFCURVE",
"56 120.837 OFFCURVE",
"56 112 CURVE SMOOTH"
);
},
{
closed = 1;
nodes = (
"104 64.0024 LINE SMOOTH",
"104 55.163 OFFCURVE",
"111.163 48 OFFCURVE",
"120 48 CURVE SMOOTH",
"128.837 48 OFFCURVE",
"136 55.163 OFFCURVE",
"136 64 CURVE SMOOTH",
"136 112 LINE SMOOTH",
"136 120.837 OFFCURVE",
"128.837 128 OFFCURVE",
"120 128 CURVE SMOOTH",
"111.163 128 OFFCURVE",
"104 120.837 OFFCURVE",
"104 112 CURVE SMOOTH"
);
},
{
closed = 1;
nodes = (
"15.163 32 OFFCURVE",
"8 24.837 OFFCURVE",
"8 16 CURVE SMOOTH",
"8 7.163 OFFCURVE",
"15.163 0 OFFCURVE",
"24 0 CURVE SMOOTH",
"32.837 0 OFFCURVE",
"40 7.163 OFFCURVE",
"40 16 CURVE SMOOTH",
"40 24.837 OFFCURVE",
"32.837 32 OFFCURVE",
"24 32 CURVE SMOOTH"
);
},
{
closed = 1;
nodes = (
"63.163 32 OFFCURVE",
"56 24.837 OFFCURVE",
"56 16 CURVE SMOOTH",
"56 7.163 OFFCURVE",
"63.163 0 OFFCURVE",
"72 0 CURVE SMOOTH",
"80.837 0 OFFCURVE",
"88 7.163 OFFCURVE",
"88 16 CURVE SMOOTH",
"88 24.837 OFFCURVE",
"80.837 32 OFFCURVE",
"72 32 CURVE SMOOTH"
);
},
{
closed = 1;
nodes = (
"111.163 32 OFFCURVE",
"104 24.837 OFFCURVE",
"104 16 CURVE SMOOTH",
"104 7.163 OFFCURVE",
"111.163 0 OFFCURVE",
"120 0 CURVE SMOOTH",
"128.837 0 OFFCURVE",
"136 7.163 OFFCURVE",
"136 16 CURVE SMOOTH",
"136 24.837 OFFCURVE",
"128.837 32 OFFCURVE",
"120 32 CURVE SMOOTH"
);
}
);
width = 144;
}
);
unicode = 0021;
},
{
glyphname = numbersign;
lastChange = "2013-06-11 05:05:10 +0200";
layers = (
{
layerId = "940E2F63-624A-4C3D-A909-721782B4CF41";
name = Regular;
paths = (
{
closed = 1;
nodes = (
"40 96 LINE",
"56 96 LINE",
"56 80 LINE",
"40 80 LINE"
);
},
{
closed = 1;
nodes = (
"104 80 LINE",
"88 80 LINE",
"88 96 LINE",
"104 96 LINE"
);
},
{
closed = 1;
nodes = (
"40 32 LINE",
"40 48 LINE",
"56 48 LINE",
"56 32 LINE"
);
},
{
closed = 1;
nodes = (
"104 32 LINE",
"88 32 LINE",
"88 48 LINE",
"104 48 LINE"
);
},
{
closed = 1;
nodes = (
"24 128 LINE SMOOTH",
"15.163 128 OFFCURVE",
"8 120.837 OFFCURVE",
"8 112 CURVE SMOOTH",
"8 16.002 LINE SMOOTH",
"8 7.163 OFFCURVE",
"15.163 0 OFFCURVE",
"24 0 CURVE SMOOTH",
"120 0 LINE SMOOTH",
"128.837 0 OFFCURVE",
"136 7.163 OFFCURVE",
"136 16 CURVE SMOOTH",
"136 112 LINE SMOOTH",
"136 120.837 OFFCURVE",
"128.837 128 OFFCURVE",
"120 128 CURVE SMOOTH"
);
}
);
width = 144;
}
);
unicode = 0023;
},
{
glyphname = question;
lastChange = "2013-06-11 05:06:04 +0200";
layers = (
{
layerId = "940E2F63-624A-4C3D-A909-721782B4CF41";
name = Regular;
paths = (
{
closed = 1;
nodes = (
"136 112 LINE",
"136 120.836 OFFCURVE",
"128.838 127.998 OFFCURVE",
"120.002 127.998 CURVE SMOOTH",
"24 127.998 LINE SMOOTH",
"15.1635 127.998 OFFCURVE",
"8 120.835 OFFCURVE",
"8 111.998 CURVE SMOOTH",
"8 103.161 OFFCURVE",
"15.1635 95.9984 OFFCURVE",
"24 95.9984 CURVE SMOOTH",
"104 95.9984 LINE",
"104 79.9984 LINE",
"72 79.9984 LINE SMOOTH",
"63.1636 79.9984 OFFCURVE",
"56 72.8344 OFFCURVE",
"56 63.9974 CURVE SMOOTH",
"56 55.1604 OFFCURVE",
"63.1636 47.9974 OFFCURVE",
"72 47.9974 CURVE SMOOTH",
"120 47.9974 LINE SMOOTH",
"128.838 47.9974 OFFCURVE",
"136 55.1604 OFFCURVE",
"136 63.9974 CURVE"
);
},
{
closed = 1;
nodes = (
"63.1636 31.9974 OFFCURVE",
"56 24.8344 OFFCURVE",
"56 15.9974 CURVE SMOOTH",
"56 7.1604 OFFCURVE",
"63.1636 0 OFFCURVE",
"72 0 CURVE SMOOTH",
"80.8376 0 OFFCURVE",
"88 7.1604 OFFCURVE",
"88 15.9974 CURVE SMOOTH",
"88 24.8344 OFFCURVE",
"80.8376 31.9974 OFFCURVE",
"72 31.9974 CURVE SMOOTH"
);
}
);
width = 144;
}
);
unicode = 003F;
},
{
glyphname = braceleft;
lastChange = "2013-06-11 05:07:01 +0200";
layers = (
{
layerId = "940E2F63-624A-4C3D-A909-721782B4CF41";
name = Regular;
paths = (
{
closed = 1;
nodes = (
"88 32 LINE",
"88 96 LINE",
"120 96 LINE SMOOTH",
"128.837 96 OFFCURVE",
"136 103.163 OFFCURVE",
"136 112 CURVE SMOOTH",
"136 120.837 OFFCURVE",
"128.837 128 OFFCURVE",
"120 128 CURVE SMOOTH",
"72 128 LINE SMOOTH",
"63.163 128 OFFCURVE",
"56 120.837 OFFCURVE",
"56 112 CURVE SMOOTH",
"56 80 LINE",
"24 80 LINE SMOOTH",
"15.163 80 OFFCURVE",
"8 72.837 OFFCURVE",
"8 64 CURVE SMOOTH",
"8 55.163 OFFCURVE",
"15.163 48 OFFCURVE",
"24 48 CURVE SMOOTH",
"56 48 LINE",
"56 16.0024 LINE SMOOTH",
"56 7.163 OFFCURVE",
"63.163 0 OFFCURVE",
"72 0 CURVE SMOOTH",
"120 0 LINE SMOOTH",
"128.837 0 OFFCURVE",
"136 7.163 OFFCURVE",
"136 16 CURVE SMOOTH",
"136 24.837 OFFCURVE",
"128.837 32 OFFCURVE",
"120 32 CURVE SMOOTH"
);
}
);
width = 144;
}
);
unicode = 007B;
},
{
glyphname = divide;
lastChange = "2013-11-07 18:54:47 +0100";
layers = (
{
layerId = "940E2F63-624A-4C3D-A909-721782B4CF41";
name = Regular;
paths = (
{
closed = 1;
nodes = (
"80.8366 96 OFFCURVE",
"88 103.163 OFFCURVE",
"88 112 CURVE SMOOTH",
"88 120.837 OFFCURVE",
"80.8366 128 OFFCURVE",
"72 128 CURVE SMOOTH",
"63.1634 128 OFFCURVE",
"56 120.837 OFFCURVE",
"56 112 CURVE SMOOTH",
"56 103.163 OFFCURVE",
"63.1634 96 OFFCURVE",
"72 96 CURVE SMOOTH"
);
},
{
closed = 1;
nodes = (
"80.8366 0 OFFCURVE",
"88 7.16336 OFFCURVE",
"88 16 CURVE SMOOTH",
"88 24.8366 OFFCURVE",
"80.8366 32 OFFCURVE",
"72 32 CURVE SMOOTH",
"63.1634 32 OFFCURVE",
"56 24.8366 OFFCURVE",
"56 16 CURVE SMOOTH",
"56 7.16336 OFFCURVE",
"63.1634 0 OFFCURVE",
"72 0 CURVE SMOOTH"
);
},
{
closed = 1;
nodes = (
"24 80 LINE SMOOTH",
"15.163 80 OFFCURVE",
"8 72.837 OFFCURVE",
"8 64 CURVE SMOOTH",
"8 55.163 OFFCURVE",
"15.163 48 OFFCURVE",
"24 48 CURVE SMOOTH",
"120 48 LINE SMOOTH",
"128.837 48 OFFCURVE",
"136 55.163 OFFCURVE",
"136 64 CURVE SMOOTH",
"136 72.837 OFFCURVE",
"128.837 80 OFFCURVE",
"120 80 CURVE SMOOTH"
);
}
);
width = 144;
}
);
unicode = 00F7;
},
{
glyphname = plus;
lastChange = "2013-06-11 05:08:44 +0200";
layers = (
{
layerId = "940E2F63-624A-4C3D-A909-721782B4CF41";
name = Regular;
paths = (
{
closed = 1;
nodes = (
"88 80 LINE",
"88 112 LINE SMOOTH",
"88 120.837 OFFCURVE",
"80.837 128 OFFCURVE",
"72 128 CURVE SMOOTH",
"63.163 128 OFFCURVE",
"56 120.837 OFFCURVE",
"56 112 CURVE SMOOTH",
"56 80 LINE",
"24 80 LINE SMOOTH",
"15.163 80 OFFCURVE",
"8 72.837 OFFCURVE",
"8 64 CURVE SMOOTH",
"8 55.163 OFFCURVE",
"15.163 48 OFFCURVE",
"24 48 CURVE SMOOTH",
"56 48 LINE",
"56 16.0024 LINE SMOOTH",
"56 7.163 OFFCURVE",
"63.163 0 OFFCURVE",
"72 0 CURVE SMOOTH",
"80.837 0 OFFCURVE",
"88 7.163 OFFCURVE",
"88 16 CURVE SMOOTH",
"88 48 LINE",
"120 48 LINE SMOOTH",
"128.837 48 OFFCURVE",
"136 55.163 OFFCURVE",
"136 64 CURVE SMOOTH",
"136 72.837 OFFCURVE",
"128.837 80 OFFCURVE",
"120 80 CURVE SMOOTH"
);
}
);
width = 144;
}
);
unicode = 002B;
},
{
glyphname = ampersand;
lastChange = "2013-06-11 05:09:53 +0200";
layers = (
{
layerId = "940E2F63-624A-4C3D-A909-721782B4CF41";
name = Regular;
paths = (
{
closed = 1;
nodes = (
"120 48 LINE SMOOTH",
"128.837 48 OFFCURVE",
"136 55.163 OFFCURVE",
"136 64 CURVE SMOOTH",
"136 112 LINE SMOOTH",
"136 120.837 OFFCURVE",
"128.837 128 OFFCURVE",
"120 128 CURVE SMOOTH",
"72 128 LINE SMOOTH",
"63.163 128 OFFCURVE",
"56 120.837 OFFCURVE",
"56 112 CURVE SMOOTH",
"56 80 LINE",
"24 80 LINE SMOOTH",
"15.163 80 OFFCURVE",
"8 72.837 OFFCURVE",
"8 64 CURVE SMOOTH",
"8 16.0024 LINE SMOOTH",
"8 7.163 OFFCURVE",
"15.163 0 OFFCURVE",
"24 0 CURVE SMOOTH",
"120 0 LINE SMOOTH",
"128.837 0 OFFCURVE",
"136 7.163 OFFCURVE",
"136 16 CURVE SMOOTH",
"136 24.837 OFFCURVE",
"128.837 32 OFFCURVE",
"120 32 CURVE SMOOTH",
"40 32 LINE",
"40 48 LINE"
);
},
{
closed = 1;
nodes = (
"88 96 LINE",
"104 96 LINE",
"104 80 LINE",
"88 80 LINE"
);
}
);
width = 144;
}
);
unicode = 0026;
},
{
glyphname = degree;
lastChange = "2013-06-11 05:11:09 +0200";
layers = (
{
layerId = "940E2F63-624A-4C3D-A909-721782B4CF41";
name = Regular;
paths = (
{
closed = 1;
nodes = (
"88 112 LINE SMOOTH",
"88 120.837 OFFCURVE",
"80.837 128 OFFCURVE",
"72 128 CURVE SMOOTH",
"24 128 LINE SMOOTH",
"15.163 128 OFFCURVE",
"8 120.837 OFFCURVE",
"8 112 CURVE SMOOTH",
"8 64 LINE SMOOTH",
"8 55.8818 OFFCURVE",
"14.0452 49.1766 OFFCURVE",
"21.8799 48.1395 CURVE",
"72 48 LINE SMOOTH",
"80.837 48 OFFCURVE",
"88 55.163 OFFCURVE",
"88 64 CURVE SMOOTH"
);
},
{
closed = 1;
nodes = (
"40 96 LINE",
"56 96 LINE",
"56 80 LINE",
"40 80 LINE"
);
},
{
closed = 1;
nodes = (
"104 32 LINE",
"71.549 32 LINE SMOOTH",
"62.9206 31.7548 OFFCURVE",
"56 24.6862 OFFCURVE",
"56 16 CURVE SMOOTH",
"56 7.3139 OFFCURVE",
"62.9206 0.245299 OFFCURVE",
"71.549 0.00649904 CURVE SMOOTH",
"120 0.00649904 LINE SMOOTH",
"128.837 0.00649904 OFFCURVE",
"136 7.1631 OFFCURVE",
"136 16 CURVE SMOOTH",
"136 64 LINE SMOOTH",
"136 72.8371 OFFCURVE",
"128.837 80 OFFCURVE",
"120 80 CURVE SMOOTH",
"111.163 80 OFFCURVE",
"104 72.8371 OFFCURVE",
"104 64 CURVE SMOOTH"
);
}
